<?xml version="1.0" encoding="UTF-8"?>
<svg id="_图层_1" data-name="图层 1" xmlns="http://www.w3.org/2000/svg" viewBox="0 0 324.15 68.57">
  <defs>
    <style>
      .cls-1 {
        fill: #0042ff;
      }

      .cls-2 {
        fill: #ff4200;
      }
    </style>
  </defs>
  <g>
    <path class="cls-2" d="m56.15,5.92c0,3.27,2.65,5.92,5.92,5.92s5.92-2.65,5.92-5.92-2.65-5.92-5.92-5.92-5.92,2.65-5.92,5.92Z"/>
    <path class="cls-1" d="m38.45,13.84c0,3.27,2.65,5.92,5.92,5.92s5.92-2.65,5.92-5.92-2.65-5.92-5.92-5.92-5.92,2.65-5.92,5.92Z"/>
    <rect class="cls-1" x="56.63" y="17.09" width="10.89" height="43.56" transform="translate(124.15 77.74) rotate(180)"/>
    <rect class="cls-1" x="38.93" y="25.01" width="10.89" height="43.56" transform="translate(88.75 93.57) rotate(180)"/>
    <path class="cls-1" d="m30.88,17.09h-9.1C9.75,17.09,0,26.84,0,38.87s9.75,21.78,21.78,21.78h5.2s0,0,0,0h5.64v-1.74h0v-9.21h-1.74s0,0,0,0h-9.08c-5.97,0-10.82-4.84-10.82-10.82s4.85-10.82,10.82-10.82h10.82v-1.74h0v-9.22h-1.74Z"/>
    <path class="cls-1" d="m103.22,17.09h-9.1c-12.03,0-21.78,9.75-21.78,21.78s9.75,21.78,21.78,21.78h5.2s0,0,0,0h5.64v-1.74h0v-9.21h-1.74s0,0,0,0h-9.08c-5.97,0-10.82-4.84-10.82-10.82s4.85-10.82,10.82-10.82h10.82v-1.74h0v-9.22h-1.74Z"/>
  </g>
  <g>
    <path d="m179.5,59v-5.05h1.32c.16,0,.29-.09.39-.27.1-.18.15-.38.15-.61v-25.15h4.22l.05,27.03c0,.44-.09.95-.27,1.53-.18.58-.46,1.14-.84,1.7-.38.55-1.12.83-2.21.83h-2.81Zm7.74-33.25h-7.06v-4.96h7.06v-4.79h5.49v4.79h6.3v4.96h-6.3v35.23h-5.49V25.75Zm7.01,2.17h4.35l-.02,25.05c-.02.6.01.99.09,1.17.07.18.29.27.65.27h.63v4.49h-1.76c-1.63,0-2.69-.38-3.17-1.14s-.73-1.55-.73-2.38l-.02-27.47Zm15.11,20.75l-7.3-12.87h6.76l4.13,6.57,3.74-6.57h6.47l-6.69,12.33,2.98,5.22c.52.93,1.03,1.58,1.53,1.97.5.38.93.56,1.31.52h1.22v5.37h-2.69c-1.11,0-2.12-.26-3.05-.78-.93-.52-1.63-1.15-2.1-1.88l-2.71-4.05-2.61,3.98c-.6.91-1.18,1.59-1.73,2.05-.55.46-1.27.68-2.15.68h-4.96v-5.37h1.9c.72,0,1.29-.2,1.71-.59.42-.39.9-1.03,1.44-1.9l2.81-4.69Zm-7.69-25v-5.4h6.86l.81-2.61h5.96l.9,2.61h7.2v5.4h-21.73Zm3.88,1.29h6.05l-2.12,5.83c-.37,1.04-.95,1.91-1.73,2.6-.78.69-1.75,1.04-2.91,1.04h-3.17v-4.61l.93-.1c.23-.02.54-.17.94-.46.4-.29.65-.59.77-.88l1.25-3.42Zm8.35.15l5.64.02,1.17,3.15c.18.5.44.85.77,1.05.33.2.77.33,1.31.39l.63.1v4.61h-2.25c-.41,0-.99-.07-1.76-.21-.77-.14-1.5-.46-2.2-.95-.7-.5-1.21-1.3-1.54-2.4l-1.78-5.76Z"/>
    <path d="m240.65,15.66l-1.98,8.2v37.45h-6.35v-30.22h-3.47v-5.88h1.25c.94,0,1.53-.23,1.75-.68.22-.46.38-.89.48-1.29l1.83-7.57h6.49Zm.39,8.15h7.76l.59-8.15h6.37l-.51,8.15h17.94v5.98h-7.2v23.1c0,.63.06,1.08.17,1.33.11.25.28.46.5.63s.76.26,1.62.26h5.27v5.93h-8.84c-1.82,0-3.04-.33-3.64-1-.6-.67-.98-1.39-1.15-2.16-.16-.77-.24-1.54-.24-2.31v-25.78h-5.15l-2.44,25.07c-.08.7-.21,1.51-.39,2.42-.18.91-.57,1.77-1.16,2.56-.59.8-1.85,1.2-3.77,1.2h-5.66v-5.93h2.25c.6,0,1.08-.07,1.43-.21.35-.14.61-.41.77-.82.16-.41.28-.9.34-1.46l2.32-22.83h-7.18v-5.98Zm25.9-8.18h6.2v2.08c0,2.2-.47,3.54-1.42,4.04-.94.5-1.91.74-2.91.74h-5.4v-4.22h2.25c.44,0,.76-.11.96-.33.2-.22.31-.59.31-1.11v-1.2Z"/>
    <path d="m301.1,31.97h8.5l-12.08,20.12c-1.45,2.39-2.53,4.01-3.23,4.85-.71.84-1.51,1.41-2.39,1.72-.89.31-3.08.47-6.58.49l-5.91.05v-6.01l3.49-.02c2.07,0,3.42-.11,4.06-.33.64-.22,2.08-2.06,4.31-5.53l9.84-15.33Zm11.6-8.74v-7.64l7.62-.02v7.67h3.83v6.03h-3.83v23.56c0,1.64-.17,3.39-.5,5.25-.33,1.86-1.97,2.78-4.9,2.78h-13.21v-5.96h8.4c.91,0,1.57-.25,1.98-.76.41-.5.61-1.55.61-3.15v-21.73h-33.2v-6.03h33.2Z"/>
  </g>
  <path d="m157.43,19.44c3.63.37,6.11.91,7.44,1.61,1.33.7,2.32,1.45,2.98,2.23.66.78,1.29,1.76,1.89,2.92.6,1.17.96,2.2,1.09,3.1l.72,5.65-.44,7.83h-31.09c-.4,2.44-.36,4.19.12,5.25.48,1.06,1.25,1.86,2.31,2.41,1.06.54,2.47.82,4.21.82h4.41c1.72,0,3.31-.1,4.77-.3,1.46-.2,2.23-.6,2.31-1.21l.95-3.3h12.25c-.4,2.36-.86,4.15-1.39,5.37-.53,1.22-1.46,2.49-2.78,3.8-1.33,1.31-2.86,2.28-4.61,2.9-1.75.62-4.28.93-7.59.93h-10.93c-2.04,0-4.05-.23-6.02-.7-1.97-.46-3.7-1.19-5.19-2.19-1.48-.99-2.65-2.35-3.5-4.08-.85-1.72-1.27-3.64-1.27-5.77v-12.41c0-3,.48-5.38,1.43-7.16.95-1.78,2.01-3.16,3.18-4.16,1.17-.99,2.85-1.84,5.05-2.52,2.2-.69,4.47-1.03,6.8-1.03h12.92Zm1.83,15.51c.13-1.3.09-2.4-.12-3.3-.21-.9-.72-1.64-1.51-2.21-.8-.57-1.86-.95-3.18-1.13-1.33-.19-2.58-.29-3.78-.32-.85,0-2.35.08-4.51.24-2.16.16-3.71.53-4.65,1.11-.94.58-1.4,1.34-1.37,2.27l-.28,3.34h19.4Z"/>
</svg>